<?xml version="1.0" standalone="no"?>
<!DOCTYPE svg PUBLIC "-//W3C//DTD SVG 20010904//EN"
 "http://www.w3.org/TR/2001/REC-SVG-20010904/DTD/svg10.dtd">
<svg version="1.0" xmlns="http://www.w3.org/2000/svg"
 width="1400.000000pt" height="432.000000pt" viewBox="0 0 1400.000000 432.000000"
 preserveAspectRatio="xMidYMid meet">
<metadata>
Created by potrace 1.16, written by Peter Selinger 2001-2019
</metadata>
<g transform="translate(0.000000,432.000000) scale(0.100000,-0.100000)"
fill="#FFEBCD" stroke="none">
<path d="M1675 3791 c-213 -40 -421 -129 -579 -249 -49 -37 -97 -73 -107 -80
-15 -11 -23 -10 -56 6 -108 56 -271 71 -389 37 -315 -90 -467 -452 -314 -749
l30 -58 -58 -72 c-71 -89 -144 -226 -174 -332 -20 -68 -23 -101 -23 -244 0
-149 3 -171 24 -223 48 -120 134 -199 265 -242 126 -42 310 -51 775 -38 259 7
462 7 620 0 268 -11 716 3 891 28 205 30 381 90 492 170 l49 36 417 -3 417 -3
45 -25 c67 -38 103 -96 108 -174 5 -71 -15 -121 -65 -167 -67 -63 32 -59
-1355 -59 -731 0 -1294 -5 -1336 -10 -144 -19 -255 -98 -319 -227 -33 -67 -38
-86 -41 -167 -3 -74 0 -103 18 -155 38 -114 110 -195 220 -249 l55 -27 816 -3
c811 -2 816 -2 842 18 46 36 45 124 -1 162 -12 10 -181 14 -796 18 l-782 5
-49 26 c-30 15 -62 42 -80 68 -27 38 -30 51 -30 115 0 62 4 78 27 114 15 22
49 54 75 69 l48 28 1330 5 1330 5 68 33 c86 43 156 113 199 199 32 65 33 72
33 183 0 114 -1 117 -38 192 -59 121 -167 204 -296 228 -29 5 -198 10 -373 10
-261 0 -319 2 -315 13 97 254 98 555 1 846 -157 472 -552 823 -1055 936 -117
27 -436 30 -564 6z m392 -196 c392 -27 782 -298 968 -673 82 -166 118 -324
118 -517 0 -212 -44 -337 -156 -441 -159 -149 -382 -198 -950 -211 l-297 -6
20 47 c58 131 64 320 15 507 -6 24 -1 28 60 58 126 62 233 196 270 336 30 119
12 266 -47 377 -161 303 -570 369 -819 132 -32 -32 -59 -51 -59 -43 0 8 -14
41 -30 74 l-30 60 45 40 c102 92 293 188 462 231 91 23 266 44 323 38 14 -2
62 -6 107 -9z m-1252 -310 c111 -49 175 -140 183 -259 l4 -71 -113 -1 c-159
-1 -288 -36 -451 -122 -4 -2 -17 16 -30 40 -33 63 -33 193 1 262 77 156 251
221 406 151z m931 -185 c177 -87 227 -307 107 -464 -47 -60 -119 -102 -208
-121 -105 -22 -139 -68 -108 -150 59 -160 66 -189 67 -300 2 -189 -40 -252
-194 -293 -75 -20 -766 -29 -911 -12 -226 26 -280 77 -287 270 -5 130 13 213
70 330 34 68 60 103 133 176 77 79 103 98 185 137 162 78 328 96 480 52 30 -9
76 -19 102 -22 42 -5 50 -3 76 23 24 24 30 41 36 94 10 95 32 153 77 204 102
116 238 144 375 76z"/>
<path d="M994 2414 c-35 -17 -74 -79 -74 -118 0 -40 24 -90 55 -114 85 -67
213 -13 222 95 10 113 -101 188 -203 137z"/>
<path d="M4880 3232 c-104 -40 -163 -94 -208 -191 -22 -46 -27 -74 -30 -162
-8 -217 70 -347 237 -396 98 -28 361 -3 386 37 4 6 -12 61 -39 136 -3 8 -21 6
-58 -7 -64 -22 -185 -25 -231 -5 -72 31 -109 102 -109 215 -1 113 36 186 109
217 48 21 153 18 215 -6 29 -11 54 -20 55 -20 2 0 37 95 47 126 6 18 -1 25
-46 45 -72 31 -259 38 -328 11z"/>
<path d="M6510 3232 c-104 -40 -163 -94 -208 -191 -22 -46 -27 -74 -30 -162
-8 -217 70 -347 237 -396 98 -28 361 -3 386 37 4 6 -12 61 -39 136 -3 8 -21 6
-58 -7 -64 -22 -185 -25 -231 -5 -72 31 -109 102 -109 215 -1 113 36 186 109
217 48 21 153 18 215 -6 29 -11 54 -20 55 -20 2 0 37 95 47 126 6 18 -1 25
-46 45 -72 31 -259 38 -328 11z"/>
<path d="M13093 3230 c-93 -33 -157 -93 -202 -190 -24 -50 -26 -66 -26 -185 0
-120 2 -135 26 -186 36 -76 86 -129 156 -164 53 -27 69 -30 180 -33 90 -3 143
0 198 13 l75 16 0 190 0 189 -90 0 -90 0 0 -125 0 -125 -32 -2 c-167 -7 -240
63 -240 232 0 114 36 185 109 216 49 21 163 18 225 -6 29 -11 54 -20 55 -20 2
0 37 95 47 126 5 17 0 24 -31 37 -67 28 -116 37 -213 37 -67 -1 -110 -6 -147
-20z"/>
<path d="M5360 2860 l0 -370 255 0 255 0 0 75 0 75 -165 0 -165 0 0 295 0 295
-90 0 -90 0 0 -370z"/>
<path d="M5960 2860 l0 -370 90 0 90 0 0 370 0 370 -90 0 -90 0 0 -370z"/>
<path d="M6990 2860 l0 -370 90 0 89 0 3 148 3 147 68 -70 c37 -38 93 -105
125 -147 l57 -78 108 0 107 0 -17 28 c-54 85 -166 227 -232 293 l-76 76 113
124 c63 68 132 145 154 172 l40 47 -109 0 -108 0 -115 -127 -115 -127 -3 127
-3 127 -89 0 -90 0 0 -370z"/>
<path d="M8176 3183 c-39 -78 -129 -297 -190 -463 -31 -85 -64 -172 -72 -193
l-14 -38 96 3 97 3 26 75 26 75 137 3 136 3 29 -81 28 -80 97 0 97 0 -38 108
c-80 221 -104 281 -178 455 l-76 177 -88 0 -89 0 -24 -47z m158 -273 l45 -115
-91 -3 c-50 -1 -92 -1 -95 2 -3 3 16 56 78 215 5 13 11 22 14 20 2 -3 24 -56
49 -119z"/>
<path d="M8750 2860 l0 -370 90 0 90 0 0 226 c0 207 1 225 16 213 27 -22 165
-218 234 -332 l65 -107 78 0 77 0 0 370 0 370 -90 0 -90 0 -2 -202 -3 -202
-55 80 c-30 43 -99 134 -153 202 l-98 122 -80 0 -79 0 0 -370z"/>
<path d="M9593 3223 l-33 -4 0 -369 0 -368 65 -7 c36 -4 123 -5 193 -3 164 6
223 27 304 108 77 77 102 156 96 298 -6 149 -55 240 -158 296 -84 46 -140 56
-295 54 -77 -1 -155 -3 -172 -5z m324 -168 c50 -21 72 -42 94 -90 22 -49 25
-170 5 -218 -35 -84 -127 -127 -253 -118 l-23 1 0 220 0 220 70 0 c41 0 86 -6
107 -15z"/>
<path d="M10643 3223 l-33 -4 0 -369 0 -368 65 -7 c36 -4 123 -5 193 -3 164 6
223 27 304 108 77 77 102 156 96 298 -6 149 -55 240 -158 296 -84 46 -140 56
-295 54 -77 -1 -155 -3 -172 -5z m324 -168 c50 -21 72 -42 94 -90 22 -49 25
-170 5 -218 -35 -84 -127 -127 -253 -118 l-23 1 0 220 0 220 70 0 c41 0 86 -6
107 -15z"/>
<path d="M11433 3223 l-33 -4 0 -365 0 -364 90 0 90 0 0 125 0 125 34 0 c31 0
39 -7 83 -67 27 -38 65 -94 83 -125 l35 -58 103 0 102 0 -21 43 c-26 50 -113
183 -140 213 -19 20 -18 21 26 52 61 43 87 97 87 183 0 123 -52 192 -173 230
-49 15 -88 19 -197 17 -76 0 -152 -3 -169 -5z m333 -186 c29 -34 31 -66 4
-100 -21 -26 -35 -30 -137 -42 l-53 -6 0 92 0 91 81 -4 c74 -3 83 -6 105 -31z"/>
<path d="M12346 3183 c-39 -78 -129 -297 -190 -463 -31 -85 -64 -172 -72 -193
l-14 -38 96 3 97 3 26 75 26 75 137 3 136 3 29 -81 28 -80 97 0 97 0 -38 108
c-80 221 -104 281 -178 455 l-76 177 -88 0 -89 0 -24 -47z m158 -273 l45 -115
-91 -3 c-50 -1 -92 -1 -95 2 -3 3 16 56 78 215 5 13 11 22 14 20 2 -3 24 -56
49 -119z"/>
<path d="M11263 2026 c-91 -29 -167 -98 -211 -195 -35 -74 -43 -228 -17 -316
30 -104 92 -180 185 -224 50 -24 66 -26 175 -26 111 0 124 2 177 28 71 35 140
110 169 185 31 78 34 252 5 327 -41 107 -114 181 -214 217 -58 20 -209 22
-269 4z m217 -165 c19 -10 48 -40 65 -66 28 -45 30 -55 30 -145 0 -90 -2 -100
-30 -145 -37 -60 -83 -85 -153 -85 -119 0 -185 82 -185 230 0 107 29 169 98
211 40 25 129 25 175 0z"/>
<path d="M12789 2031 c-120 -37 -183 -143 -157 -265 16 -75 71 -124 192 -171
147 -57 188 -103 136 -155 -30 -30 -152 -30 -240 1 -30 10 -57 16 -61 11 -4
-4 -15 -32 -24 -62 -10 -30 -20 -60 -22 -66 -4 -12 49 -37 112 -54 58 -14 234
-12 288 4 105 31 152 97 151 211 -1 120 -49 176 -210 239 -139 54 -171 89
-124 136 28 28 147 28 208 0 32 -14 44 -16 47 -7 19 50 45 132 45 138 0 5 -30
17 -66 29 -69 21 -221 27 -275 11z"/>
<path d="M4621 1933 c34 -156 97 -405 135 -530 l37 -123 87 0 87 0 56 178 c31
97 59 191 63 207 6 26 17 0 73 -175 l67 -205 86 -3 87 -3 35 113 c51 168 156
584 156 622 0 3 -42 6 -94 6 l-93 0 -22 -117 c-12 -65 -33 -176 -48 -248 l-27
-130 -24 75 c-13 41 -41 134 -61 205 l-38 130 -80 3 -80 3 -41 -148 c-53 -191
-78 -262 -85 -243 -8 21 -42 178 -62 280 -9 47 -21 109 -26 138 l-10 52 -99 0
-98 0 19 -87z"/>
<path d="M5680 1650 l0 -370 90 0 90 0 0 370 0 370 -90 0 -90 0 0 -370z"/>
<path d="M5950 1950 l0 -70 115 0 115 0 0 -300 0 -300 90 0 90 0 0 300 0 300
110 0 110 0 0 70 0 70 -315 0 -315 0 0 -70z"/>
<path d="M6680 1650 l0 -370 90 0 90 0 0 155 0 155 130 0 130 0 0 -155 0 -155
95 0 95 0 0 370 0 370 -95 0 -95 0 0 -145 0 -145 -130 0 -130 0 0 145 0 145
-90 0 -90 0 0 -370z"/>
<path d="M7660 1950 l0 -70 115 0 115 0 0 -300 0 -300 90 0 90 0 0 300 0 300
110 0 110 0 0 70 0 70 -315 0 -315 0 0 -70z"/>
<path d="M8390 1650 l0 -370 90 0 90 0 0 155 0 155 130 0 130 0 0 -155 0 -155
95 0 95 0 0 370 0 370 -95 0 -95 0 0 -145 0 -145 -130 0 -130 0 0 145 0 145
-90 0 -90 0 0 -370z"/>
<path d="M9180 1650 l0 -370 270 0 270 0 0 70 0 70 -180 0 -180 0 0 90 0 90
150 0 150 0 0 70 0 70 -150 0 -150 0 0 70 0 70 165 0 165 0 0 70 0 70 -255 0
-255 0 0 -370z"/>
<path d="M10112 1912 c-15 -134 -42 -509 -42 -580 l0 -53 88 3 87 3 8 210 c4
115 11 213 15 217 4 4 40 -71 81 -167 l74 -175 67 0 67 0 74 175 c40 96 77
171 81 167 4 -4 11 -103 14 -220 l7 -212 89 0 88 0 0 53 c0 70 -27 445 -42
579 l-11 108 -87 0 -86 0 -24 -47 c-13 -27 -56 -121 -95 -210 l-72 -162 -43
102 c-24 56 -67 150 -97 210 l-53 107 -88 0 -89 0 -11 -108z"/>
<path d="M11892 1733 c3 -272 4 -290 24 -328 54 -101 121 -137 261 -143 163
-7 254 38 304 150 23 51 24 63 27 331 l3 277 -90 0 -91 0 0 -232 c0 -128 -5
-251 -10 -273 -14 -61 -58 -95 -121 -95 -65 0 -86 12 -110 63 -17 38 -19 68
-19 290 l0 247 -91 0 -90 0 3 -287z"/>
<path d="M13280 1650 l0 -370 270 0 270 0 0 70 0 70 -180 0 -180 0 0 90 0 90
150 0 150 0 0 70 0 70 -150 0 -150 0 0 70 0 70 165 0 165 0 0 70 0 70 -255 0
-255 0 0 -370z"/>
</g>
</svg>
